<svg xmlns="http://www.w3.org/2000/svg" viewBox="0 0 64 64">
  <defs>
    <linearGradient id="g" x1="0" y1="0" x2="1" y2="1">
      <stop offset="0" stop-color="#F9DD80"/>
      <stop offset=".45" stop-color="#E3B544"/>
      <stop offset="1" stop-color="#A8761A"/>
    </linearGradient>
    <linearGradient id="g2" x1="0" y1="0" x2="0" y2="1">
      <stop offset="0" stop-color="#F2C95C"/>
      <stop offset="1" stop-color="#B8861F"/>
    </linearGradient>
  </defs>
  <!-- globe -->
  <circle cx="32" cy="16" r="12.5" fill="url(#g)"/>
  <path d="M20.8 12.6 Q32 17.4 43.2 12.6 M20.8 19.4 Q32 14.6 43.2 19.4 M32 3.5 Q26 16 32 28.5 M32 3.5 Q38 16 32 28.5"
        fill="none" stroke="#8A5E10" stroke-width="1.5" opacity=".5"/>
  <ellipse cx="27" cy="11.5" rx="3.2" ry="4.4" fill="#FFF3C9" opacity=".8" transform="rotate(-24 27 11.5)"/>
  <!-- body rising to cradle the globe -->
  <path d="M22 24
           C25.5 29 38.5 29 42 24
           C40.5 32 38.5 38 39.8 45
           L24.2 45
           C25.5 38 23.5 32 22 24 Z" fill="url(#g)"/>
  <!-- flared base -->
  <path d="M24.2 45 C21.5 50 17.5 53 14 55 L50 55 C46.5 53 42.5 50 39.8 45 Z" fill="url(#g2)"/>
  <!-- plinth -->
  <rect x="13" y="56" width="38" height="7" rx="2.6" fill="#8A5E10"/>
  <rect x="13" y="56" width="38" height="3.2" rx="1.6" fill="#C89A2E"/>
  <!-- body sheen -->
  <path d="M26.5 30 C27.5 35 27 40 26.3 44 L28.8 44 C29.3 39 29.3 34 28.6 30 Z" fill="#FFF3C9" opacity=".4"/>
</svg>
